<svg width="21" height="21" viewBox="0 0 21 21" fill="none" xmlns="http://www.w3.org/2000/svg">
<path d="M6.023 8.63417C6.023 8.56274 6.05872 8.48238 6.11229 8.42881L6.55872 7.98238C6.61229 7.92881 6.69264 7.8931 6.76407 7.8931C6.8355 7.8931 6.91586 7.92881 6.96943 7.98238L10.4784 11.4913L13.9873 7.98238C14.0409 7.92881 14.1212 7.8931 14.1926 7.8931C14.273 7.8931 14.3444 7.92881 14.398 7.98238L14.8444 8.42881C14.898 8.48238 14.9337 8.56274 14.9337 8.63417C14.9337 8.7056 14.898 8.78595 14.8444 8.83953L10.6837 13.0002C10.6301 13.0538 10.5498 13.0895 10.4784 13.0895C10.4069 13.0895 10.3266 13.0538 10.273 13.0002L6.11229 8.83953C6.05872 8.78596 6.023 8.7056 6.023 8.63417Z" fill="black"/>
</svg>
