<svg width="20" height="20" viewBox="0 0 20 20" fill="none" xmlns="http://www.w3.org/2000/svg">
<path d="M17.2474 4.24107L13.7943 0.758929C13.3848 0.345982 12.5658 0 11.9792 0H2.0625C1.47591 0 1 0.479912 1 1.07143V18.9286C1 19.5201 1.47591 20 2.0625 20H16.9375C17.5241 20 18 19.5201 18 18.9286V6.07143C18 5.47991 17.6569 4.65402 17.2474 4.24107ZM12.3333 1.51786C12.5215 1.58482 12.7096 1.68527 12.7871 1.76339L16.2513 5.2567C16.3288 5.33482 16.4284 5.52455 16.4948 5.71429H12.3333V1.51786ZM16.5833 18.5714H2.41667V1.42857H10.9167V6.07143C10.9167 6.66295 11.3926 7.14286 11.9792 7.14286H16.5833V18.5714ZM5.25 8.92857V9.64286C5.25 9.84375 5.40495 10 5.60417 10H13.3958C13.5951 10 13.75 9.84375 13.75 9.64286V8.92857C13.75 8.72768 13.5951 8.57143 13.3958 8.57143H5.60417C5.40495 8.57143 5.25 8.72768 5.25 8.92857ZM13.3958 11.4286H5.60417C5.40495 11.4286 5.25 11.5848 5.25 11.7857V12.5C5.25 12.7009 5.40495 12.8571 5.60417 12.8571H13.3958C13.5951 12.8571 13.75 12.7009 13.75 12.5V11.7857C13.75 11.5848 13.5951 11.4286 13.3958 11.4286ZM13.3958 14.2857H5.60417C5.40495 14.2857 5.25 14.442 5.25 14.6429V15.3571C5.25 15.558 5.40495 15.7143 5.60417 15.7143H13.3958C13.5951 15.7143 13.75 15.558 13.75 15.3571V14.6429C13.75 14.442 13.5951 14.2857 13.3958 14.2857Z" fill="#272733"/>
</svg>
